Stone Temple Pilots Alive In The Windy City Mp4 720p AAC Multichannel

Track Listing: 1) Vasoline 2) Crackerman 3) Wicked Garden 4) Hollywood Bitch 5) Between The Lines 6) Hickory Dichotomy 7) Big Empty 8) Sour Girl 9) Creep 10) Plush 11) Interstate Love Song 12) Bagman 13) Huckleberry Crumble 14) Sex Type Thing 15) Dead And Bloated 16) Lounge Fly 17) Piece Of Pie 18) Trippin On A Hole In A Paper Heart

General
Stone Temple Pilots Alive In The Windy City Mp4 720p AAC Multichannel.mp4
Format : MPEG-4
Format profile : Base Media
Codec ID : isom
File size : 2.25 GiB
Duration : 1h 17mn
Overall bit rate mode : Variable
Overall bit rate : 4 162 Kbps
Encoded date : UTC 2013-01-02 08:25:25
Tagged date : UTC 2013-01-02 08:25:25

Video
ID : 1
Format : AVC
Format/Info : Advanced Video Codec
Format profile : High@L4.0
Format settings, CABAC : Yes
Format settings, ReFrames : 3 frames
Codec ID : avc1
Codec ID/Info : Advanced Video Coding
Duration : 1h 17mn
Bit rate mode : Variable
Bit rate : 3 839 Kbps
Maximum bit rate : 25.0 Mbps
Width : 1 280 pixels
Height : 720 pixels
Display aspect ratio : 16:9
Frame rate mode : Constant
Frame rate : 29.970 fps
Color space : YUV
Chroma subsampling : 4:2:0
Bit depth : 8 bits
Scan type : Progressive
Bits/(Pixel*Frame) : 0.139
Stream size : 2.08 GiB (92%)
Writing library : x264 core 125 r2208 d9d2288
Encoding settings : cabac=1 / ref=3 / deblock=1:0:0 / analyse=0x3:0x113 / me=hex / subme=7 / psy=1 / psy_rd=1.00:0.00 / mixed_ref=1 / me_range=16 / chroma_me=1 / trellis=1 / 8x8dct=1 / cqm=0 / deadzone=21,11 / fast_pskip=1 / chroma_qp_offset=-2 / threads=12 / lookahead_threads=2 / sliced_threads=0 / nr=0 / decimate=1 / interlaced=0 / bluray_compat=0 / constrained_intra=0 / bframes=3 / b_pyramid=0 / b_adapt=1 / b_bias=0 / direct=1 / weightb=1 / open_gop=0 / weightp=2 / keyint=300 / keyint_min=30 / scenecut=40 / intra_refresh=0 / rc_lookahead=40 / rc=crf / mbtree=1 / crf=24.0 / qcomp=0.60 / qpmin=0 / qpmax=69 / qpstep=4 / vbv_maxrate=25000 / vbv_bufsize=25000 / crf_max=0.0 / nal_hrd=vbr / ip_ratio=1.40 / aq=1:1.00
Encoded date : UTC 2013-01-02 08:25:25
Tagged date : UTC 2013-01-02 08:25:46

Audio
ID : 2
Format : AAC
Format/Info : Advanced Audio Codec
Format profile : LC
Codec ID : 40
Duration : 1h 17mn
Bit rate mode : Variable
Bit rate : 320 Kbps
Maximum bit rate : 328 Kbps
Channel(s) : 6 channels
Channel positions : Front: L C R, Side: L R, LFE
Sampling rate : 48.0 KHz
Compression mode : Lossy
Stream size : 177 MiB (8%)
Title : xé,
Language : English
Encoded date : UTC 2013-01-02 08:25:43
Tagged date : UTC 2013-01-02 08:25:46